<?xml version="1.0" encoding="UTF-8" standalone="no"?>
<!-- Created with Inkscape (http://www.inkscape.org/) -->

<svg
   xmlns:dc="http://purl.org/dc/elements/1.1/"
   xmlns:cc="http://creativecommons.org/ns#"
   xmlns:rdf="http://www.w3.org/1999/02/22-rdf-syntax-ns#"
   xmlns:svg="http://www.w3.org/2000/svg"
   xmlns="http://www.w3.org/2000/svg"
   xmlns:sodipodi="http://sodipodi.sourceforge.net/DTD/sodipodi-0.dtd"
   xmlns:inkscape="http://www.inkscape.org/namespaces/inkscape"
   width="212.55859"
   height="212.81441"
   id="svg2"
   version="1.1"
   inkscape:version="0.48.3.1 r9886"
   sodipodi:docname="New document 1">
  <defs
     id="defs4" />
  <sodipodi:namedview
     id="base"
     pagecolor="#ffffff"
     bordercolor="#666666"
     borderopacity="1.0"
     inkscape:pageopacity="0.0"
     inkscape:pageshadow="2"
     inkscape:zoom="0.98994949"
     inkscape:cx="313.92218"
     inkscape:cy="52.820492"
     inkscape:document-units="px"
     inkscape:current-layer="layer1"
     showgrid="false"
     inkscape:snap-bbox="true"
     fit-margin-top="0"
     fit-margin-left="0"
     fit-margin-right="0"
     fit-margin-bottom="0"
     inkscape:window-width="1280"
     inkscape:window-height="1002"
     inkscape:window-x="-8"
     inkscape:window-y="-8"
     inkscape:window-maximized="1" />
  <metadata
     id="metadata7">
    <rdf:RDF>
      <cc:Work
         rdf:about="">
        <dc:format>image/svg+xml</dc:format>
        <dc:type
           rdf:resource="http://purl.org/dc/dcmitype/StillImage" />
        <dc:title></dc:title>
      </cc:Work>
    </rdf:RDF>
  </metadata>
  <g
     inkscape:label="Layer 1"
     inkscape:groupmode="layer"
     id="layer1"
     transform="translate(-61.077815,-372.36827)">
    <path
       inkscape:connector-curvature="0"
       id="path2998"
       d="m 163.95955,582.29446 c -1.02812,-1.6906 -2.1427,-4.78359 -2.47686,-6.87331 -0.52305,-3.27095 -1.04346,-3.88668 -3.74101,-4.42619 -6.89044,-1.37809 -8.382,-0.89083 -10.25275,3.34931 -2.3013,5.216 -6.181,8.33503 -8.69453,6.98983 -2.20771,-1.18153 -3.40904,-6.63165 -2.51372,-11.40411 0.62394,-3.32588 0.49335,-3.50538 -3.99445,-5.49055 l -4.63947,-2.05226 -4.53448,5.04344 c -3.5743,3.97547 -5.08711,4.97929 -7.14426,4.74054 -3.36725,-0.3908 -3.8807,-3.96578 -1.56915,-10.92523 0.92387,-2.7815 1.29267,-5.38679 0.81956,-5.78953 -0.4731,-0.40274 -2.72051,-2.15881 -4.99423,-3.90238 -3.77765,-2.89683 -4.2518,-3.02782 -5.5,-1.51946 -0.75128,0.90787 -3.14294,2.4473 -5.314799,3.42096 -4.49517,2.01521 -7.55116,1.14013 -7.55116,-2.16227 0,-2.28645 3.44876,-9.46626 5.01074,-10.43162 0.6291,-0.38881 -0.23079,-2.29042 -2.1786,-4.81785 -1.76986,-2.29653 -3.28912,-4.29601 -3.37614,-4.44328 -0.087,-0.14727 -2.13771,0.63034 -4.5571,1.72804 -5.18629,2.35305 -10.1799,2.611 -11.83928,0.61156 -1.6666,-2.00812 0.87298,-6.61979 5.84632,-10.61648 l 3.90145,-3.13529 -2.27801,-5.16003 -2.27801,-5.16003 -5.87568,0.31395 c -7.55014,0.40341 -10.299744,-1.28425 -8.84265,-5.42746 0.68869,-1.95829 2.56074,-3.57641 6.18636,-5.34725 4.83524,-2.36165 5.16289,-2.74906 4.68481,-5.53924 -1.46489,-8.54943 -1.15711,-8.12644 -6.83805,-9.39778 -6.197584,-1.38696 -9.544454,-4.2954 -7.952514,-6.91076 0.56626,-0.9303 3.826504,-2.57948 7.244974,-3.66483 4.56458,-1.44924 6.32088,-2.51165 6.61252,-4 1.71202,-8.73715 1.83239,-8.33913 -3.30971,-10.94483 -5.77095,-2.92436 -7.421104,-4.74483 -6.98819,-7.70944 0.41109,-2.81525 4.66118,-4.15161 10.84092,-3.40871 l 4.51416,0.54266 1.7317,-4.87571 1.7317,-4.87572 -4.5726,-4.5726 c -7.7102,-7.7102 -4.47542,-11.93387 6.3221,-8.25479 2.53828,0.86488 4.72157,1.57251 4.85175,1.57251 0.13018,0 1.90242,-2.26917 3.9383,-5.0426 3.34128,-4.55173 3.55599,-5.2088 2.20576,-6.75 -0.82272,-0.93907 -2.22512,-3.14755 -3.11644,-4.90774 -4.32494,-8.54089 0.69877,-10.96525 9.851369,-4.75413 l 3.82575,2.59623 4.10115,-3.0014 c 3.5999,-2.63457 4.0563,-3.40711 3.73424,-6.32088 -0.20179,-1.82571 -0.42679,-5.34448 -0.5,-7.81948 -0.11845,-4.00481 0.12474,-4.53651 2.20999,-4.83175 1.71189,-0.24238 3.50309,0.8789 6.64917,4.16233 l 4.30608,4.49408 4.60305,-1.65525 4.60305,-1.65524 -0.54173,-4.50709 c -0.74527,-6.20051 0.59381,-10.42276 3.43707,-10.83744 2.98276,-0.43501 5.57632,2.03715 7.79436,7.42955 1.73508,4.21826 1.94303,4.36868 5.30586,3.83795 7.74228,-1.22189 7.70191,-1.19402 8.94357,-6.17567 1.42574,-5.72024 3.56474,-9.26147 5.59418,-9.26147 1.98441,0 5.18698,5.41124 5.97978,10.10374 0.66777,3.95251 0.48459,3.84441 8.98247,5.30047 2.79018,0.47808 3.17759,0.15043 5.53924,-4.68481 1.7341,-3.5504 3.40038,-5.50169 5.25514,-6.15397 4.06482,-1.42952 5.2061,0.39862 5.20273,8.33387 l -0.003,6.79419 4.40823,1.58519 4.40824,1.58519 4.37152,-4.49797 c 3.06914,-3.15791 5.03384,-4.40381 6.59465,-4.18193 1.92627,0.27383 2.21949,0.91693 2.19586,4.81603 -0.015,2.475 -0.37537,5.90385 -0.80083,7.61968 -0.72177,2.91081 -0.45215,3.3504 4.02727,6.56596 l 4.80095,3.44628 4.5,-2.85353 c 5.39494,-3.42103 9.34201,-3.39431 9.83199,0.0666 0.41115,2.90404 -1.40773,7.46112 -3.86588,9.68573 -1.78801,1.61812 -1.72997,1.83757 1.70178,6.43427 l 3.55293,4.759 4.90032,-1.86197 c 5.88898,-2.23764 9.21771,-2.36354 10.83903,-0.40996 1.78521,2.15104 0.41409,5.11966 -4.57084,9.89637 l -4.44879,4.26296 2.10945,4.76876 c 2.10045,4.74842 2.12607,4.76594 6.008,4.1101 5.05776,-0.85451 9.70712,0.20238 10.92831,2.4842 1.33218,2.4892 -1.75311,6.25021 -7.34982,8.95952 l -4.35573,2.10858 0.94784,5.22874 c 0.52131,2.87582 1.02064,5.27075 1.10962,5.32209 0.089,0.0513 2.8258,0.95134 6.08181,2 3.25602,1.04866 6.3871,2.66782 6.95796,3.59812 1.60781,2.62014 -1.74396,5.52322 -7.99094,6.92123 -2.96287,0.66306 -5.40664,1.69646 -5.43059,2.29644 -0.0239,0.59998 -0.41206,2.99534 -0.86247,5.32303 l -0.81891,4.23216 5.31861,3.00164 c 6.83938,3.85991 8.2169,6.22346 5.31715,9.12321 -1.8217,1.8217 -3.00408,2.07213 -8.05738,1.70661 l -5.92238,-0.42839 -1.99501,4.51006 c -1.8997,4.29458 -1.91,4.55688 -0.21554,5.49021 3.98809,2.19667 8.42374,7.5919 8.10256,9.85542 -0.25765,1.81582 -1.04978,2.33782 -3.91154,2.57765 -1.97365,0.16541 -5.416,-0.3289 -7.64967,-1.09846 l -4.06122,-1.39921 -3.68101,4.93057 c -3.28545,4.40074 -3.52411,5.10981 -2.22092,6.59847 2.42414,2.76914 4.70128,7.91226 4.70128,10.61824 0,2.22548 -0.42594,2.54966 -3.34996,2.54966 -2.14373,0 -4.85843,-1.09273 -7.5393,-3.03474 l -4.18935,-3.03475 -4.46069,3.65521 c -2.45339,2.01036 -4.4607,3.77104 -4.4607,3.91262 0,0.14158 0.69953,1.93161 1.5545,3.97786 0.85498,2.04625 1.41748,5.36371 1.25,7.37213 -0.4607,5.52488 -3.52769,5.42612 -9.66125,-0.31111 l -4.91204,-4.59463 -4.8656,1.91798 -4.86561,1.91798 0.33554,5.8943 c 0.2674,4.69717 -0.0618,6.38499 -1.62085,8.31035 -1.90818,2.3565 -2.02209,2.37302 -4.62104,0.67012 -1.46556,-0.96027 -3.63834,-3.7501 -4.82841,-6.19963 -2.28828,-4.70996 -2.97327,-4.97621 -9.86819,-3.83571 -3.37977,0.55906 -3.67581,0.91168 -4.77942,5.69277 -2.00491,8.68575 -5.736,11.0095 -9.01632,5.61544 z m -3.10131,-59.67303 0,-27.74683 -19.75,19.75546 -19.75,19.75546 3,2.4609 c 7.28373,5.97485 25.3924,13.18534 33.75,13.43854 l 2.75,0.0833 0,-27.74684 z m 25.39052,25.77484 c 8.29726,-2.12208 19.29151,-7.42685 24.47924,-11.81132 l 3.21439,-2.71668 -20.04208,-19.99062 -20.04207,-19.99063 0,28.24063 0,28.24062 2.34004,0 c 1.28702,0 5.80973,-0.8874 10.05048,-1.972 z m -53.89052,-43.028 19.98125,-20 -28.35417,0 -28.354169,0 0.71063,4.75 c 1.35216,9.03811 5.515669,19.99218 10.502029,27.63052 2.73573,4.19072 5.09986,7.61948 5.25362,7.61948 0.15376,0 9.27112,-9 20.26081,-20 z m 94.54304,14.43745 c 5.96943,-8.67627 11.8926,-24.64085 11.94218,-32.18745 l 0.0148,-2.25 -27.74038,0 -27.74039,0 19.48077,19.5 c 10.71442,10.725 19.80098,19.5 20.19234,19.5 0.39137,0 2.12418,-2.05315 3.8507,-4.56255 z m -55.04304,-36.43745 c 2.79877,-2.79877 2.5315,-6.43676 -0.65713,-8.94494 -3.01882,-2.3746 -5.88067,-1.99406 -8.59287,1.14262 -2.26584,2.62046 -2.20586,3.95307 0.32258,7.16746 2.49071,3.16643 6.13658,3.4257 8.92742,0.63486 z m -39.48432,-30.98431 -19.96557,-19.98431 -2.2001,2.73431 c -4.25256,5.28515 -10.398799,18.10515 -12.364089,25.78937 -3.25982,12.74575 -6.24388,11.44494 26.254699,11.44494 l 28.24063,0 -19.96557,-19.98431 z m 106.05361,14.79511 c -1.04224,-7.85682 -5.036,-18.28731 -10.13376,-26.46633 -2.51769,-4.03946 -4.88747,-7.34447 -5.26619,-7.34447 -0.37871,0 -9.45492,8.775 -20.16934,19.5 l -19.48077,19.5 27.86922,0 27.86921,0 -0.68837,-5.1892 z m -27.28979,-45.56556 c -7.21009,-5.84891 -22.19615,-12.09456 -33.0295,-13.76551 l -4.25,-0.65553 0,28.32853 0,28.32852 20.0295,-19.99063 20.0295,-19.99062 -2.7795,-2.25476 z m -50.70275,-14.00182 c -0.25076,-0.25077 -3.97062,0.24976 -8.26634,1.11227 -7.7753,1.56116 -23.15063,8.49385 -28.24284,12.73462 l -2.43242,2.02572 19.43242,19.4524 19.43243,19.4524 0.26635,-27.16074 c 0.14649,-14.9384 0.0612,-27.3659 -0.1896,-27.61667 z"
       style="fill:#030303" />
  </g>
</svg>
